%TF.GenerationSoftware,KiCad,Pcbnew,6.0.0*%
%TF.CreationDate,2022-01-23T12:17:05+01:00*%
%TF.ProjectId,pcb,7063622e-6b69-4636-9164-5f7063625858,1.0*%
%TF.SameCoordinates,Original*%
%TF.FileFunction,Legend,Top*%
%TF.FilePolarity,Positive*%
%FSLAX46Y46*%
G04 Gerber Fmt 4.6, Leading zero omitted, Abs format (unit mm)*
G04 Created by KiCad (PCBNEW 6.0.0) date 2022-01-23 12:17:05*
%MOMM*%
%LPD*%
G01*
G04 APERTURE LIST*
%ADD10C,0.150000*%
%ADD11C,0.200000*%
%ADD12C,0.120000*%
G04 APERTURE END LIST*
D10*
%TO.C,S0*%
X146240051Y-80778239D02*
X146382908Y-80825858D01*
X146621003Y-80825858D01*
X146716241Y-80778239D01*
X146763860Y-80730620D01*
X146811479Y-80635382D01*
X146811479Y-80540144D01*
X146763860Y-80444906D01*
X146716241Y-80397287D01*
X146621003Y-80349668D01*
X146430527Y-80302049D01*
X146335289Y-80254430D01*
X146287670Y-80206811D01*
X146240051Y-80111573D01*
X146240051Y-80016335D01*
X146287670Y-79921097D01*
X146335289Y-79873478D01*
X146430527Y-79825858D01*
X146668622Y-79825858D01*
X146811479Y-79873478D01*
X147430527Y-79825858D02*
X147525765Y-79825858D01*
X147621003Y-79873478D01*
X147668622Y-79921097D01*
X147716241Y-80016335D01*
X147763860Y-80206811D01*
X147763860Y-80444906D01*
X147716241Y-80635382D01*
X147668622Y-80730620D01*
X147621003Y-80778239D01*
X147525765Y-80825858D01*
X147430527Y-80825858D01*
X147335289Y-80778239D01*
X147287670Y-80730620D01*
X147240051Y-80635382D01*
X147192432Y-80444906D01*
X147192432Y-80206811D01*
X147240051Y-80016335D01*
X147287670Y-79921097D01*
X147335289Y-79873478D01*
X147430527Y-79825858D01*
%TO.C,J2*%
X170833622Y-82575858D02*
X170833622Y-83290144D01*
X170786003Y-83433001D01*
X170690765Y-83528239D01*
X170547908Y-83575858D01*
X170452670Y-83575858D01*
X171262194Y-82671097D02*
X171309813Y-82623478D01*
X171405051Y-82575858D01*
X171643146Y-82575858D01*
X171738384Y-82623478D01*
X171786003Y-82671097D01*
X171833622Y-82766335D01*
X171833622Y-82861573D01*
X171786003Y-83004430D01*
X171214575Y-83575858D01*
X171833622Y-83575858D01*
%TO.C,J1*%
X156828622Y-115385858D02*
X156828622Y-116100144D01*
X156781003Y-116243001D01*
X156685765Y-116338239D01*
X156542908Y-116385858D01*
X156447670Y-116385858D01*
X157828622Y-116385858D02*
X157257194Y-116385858D01*
X157542908Y-116385858D02*
X157542908Y-115385858D01*
X157447670Y-115528716D01*
X157352432Y-115623954D01*
X157257194Y-115671573D01*
D11*
%TO.C,R2*%
X173041956Y-105513478D02*
X170741956Y-105513478D01*
X170741956Y-105513478D02*
X170741956Y-99213478D01*
X173041956Y-99213478D02*
X173041956Y-105513478D01*
X170741956Y-99213478D02*
X173041956Y-99213478D01*
X171891956Y-105513478D02*
X171891956Y-109163478D01*
X171891956Y-95563478D02*
X171891956Y-99213478D01*
%TO.C,R7*%
X146491956Y-105513478D02*
X146491956Y-109163478D01*
X147641956Y-99213478D02*
X147641956Y-105513478D01*
X146491956Y-95563478D02*
X146491956Y-99213478D01*
X145341956Y-99213478D02*
X147641956Y-99213478D01*
X145341956Y-105513478D02*
X145341956Y-99213478D01*
X147641956Y-105513478D02*
X145341956Y-105513478D01*
%TO.C,R6*%
X150421956Y-105513478D02*
X150421956Y-99213478D01*
X151571956Y-105513478D02*
X151571956Y-109163478D01*
X151571956Y-95563478D02*
X151571956Y-99213478D01*
X152721956Y-99213478D02*
X152721956Y-105513478D01*
X150421956Y-99213478D02*
X152721956Y-99213478D01*
X152721956Y-105513478D02*
X150421956Y-105513478D01*
D12*
%TO.C,S0*%
X141839456Y-82753478D02*
X141839456Y-83078478D01*
X141839456Y-82753478D02*
X142176956Y-82753478D01*
X142001956Y-82903478D02*
X151976956Y-82903478D01*
X151976956Y-82903478D02*
X151976956Y-88478478D01*
X151976956Y-88478478D02*
X142001956Y-88478478D01*
X142001956Y-88478478D02*
X142001956Y-82903478D01*
D11*
%TO.C,R4*%
X160581956Y-105513478D02*
X160581956Y-99213478D01*
X161731956Y-95563478D02*
X161731956Y-99213478D01*
X161731956Y-105513478D02*
X161731956Y-109163478D01*
X162881956Y-99213478D02*
X162881956Y-105513478D01*
X162881956Y-105513478D02*
X160581956Y-105513478D01*
X160581956Y-99213478D02*
X162881956Y-99213478D01*
%TO.C,R8*%
X141411956Y-105513478D02*
X141411956Y-109163478D01*
X142561956Y-99213478D02*
X142561956Y-105513478D01*
X140261956Y-99213478D02*
X142561956Y-99213478D01*
X142561956Y-105513478D02*
X140261956Y-105513478D01*
X141411956Y-95563478D02*
X141411956Y-99213478D01*
X140261956Y-105513478D02*
X140261956Y-99213478D01*
%TO.C,R3*%
X167961956Y-105513478D02*
X165661956Y-105513478D01*
X165661956Y-105513478D02*
X165661956Y-99213478D01*
X166811956Y-105513478D02*
X166811956Y-109163478D01*
X167961956Y-99213478D02*
X167961956Y-105513478D01*
X166811956Y-95563478D02*
X166811956Y-99213478D01*
X165661956Y-99213478D02*
X167961956Y-99213478D01*
D12*
%TO.C,J2*%
X168711956Y-86968478D02*
X166711956Y-86968478D01*
X166711956Y-72468478D02*
X175911956Y-72468478D01*
X175911956Y-72468478D02*
X175911956Y-86968478D01*
X166711956Y-86968478D02*
X166711956Y-85668478D01*
X174511956Y-87268478D02*
X176211956Y-87268478D01*
X176211956Y-87268478D02*
X176211956Y-85968478D01*
X175911956Y-86968478D02*
X173911956Y-86968478D01*
X166711956Y-81068478D02*
X166711956Y-72468478D01*
D11*
%TO.C,R1*%
X176971956Y-95563478D02*
X176971956Y-99213478D01*
X176971956Y-105513478D02*
X176971956Y-109163478D01*
X178121956Y-105513478D02*
X175821956Y-105513478D01*
X175821956Y-99213478D02*
X178121956Y-99213478D01*
X178121956Y-99213478D02*
X178121956Y-105513478D01*
X175821956Y-105513478D02*
X175821956Y-99213478D01*
%TO.C,R5*%
X154951156Y-105513478D02*
X154951156Y-99213478D01*
X157251156Y-105513478D02*
X154951156Y-105513478D01*
X154951156Y-99213478D02*
X157251156Y-99213478D01*
X156101156Y-95563478D02*
X156101156Y-99213478D01*
X156101156Y-105513478D02*
X156101156Y-109163478D01*
X157251156Y-99213478D02*
X157251156Y-105513478D01*
%TD*%
M02*
