%TF.GenerationSoftware,KiCad,Pcbnew,6.0.0*%
%TF.CreationDate,2022-01-23T12:17:03+01:00*%
%TF.ProjectId,pcb,7063622e-6b69-4636-9164-5f7063625858,1.0*%
%TF.SameCoordinates,Original*%
%TF.FileFunction,Copper,L1,Top*%
%TF.FilePolarity,Positive*%
%FSLAX46Y46*%
G04 Gerber Fmt 4.6, Leading zero omitted, Abs format (unit mm)*
G04 Created by KiCad (PCBNEW 6.0.0) date 2022-01-23 12:17:03*
%MOMM*%
%LPD*%
G01*
G04 APERTURE LIST*
%TA.AperFunction,ComponentPad*%
%ADD10C,2.000000*%
%TD*%
%TA.AperFunction,ComponentPad*%
%ADD11O,2.600000X1.800000*%
%TD*%
%TA.AperFunction,ComponentPad*%
%ADD12R,4.600000X2.000000*%
%TD*%
%TA.AperFunction,ComponentPad*%
%ADD13O,4.200000X2.000000*%
%TD*%
%TA.AperFunction,ComponentPad*%
%ADD14O,2.000000X4.200000*%
%TD*%
%TA.AperFunction,Conductor*%
%ADD15C,0.800000*%
%TD*%
G04 APERTURE END LIST*
D10*
%TO.P,R2,1*%
%TO.N,Net-(J2-Pad1)*%
X171891956Y-94613478D03*
%TO.P,R2,2*%
%TO.N,Net-(R1-Pad2)*%
X171891956Y-110113478D03*
%TD*%
%TO.P,R7,1*%
%TO.N,Net-(J2-Pad1)*%
X146491956Y-94613478D03*
%TO.P,R7,2*%
%TO.N,Net-(R1-Pad2)*%
X146491956Y-110113478D03*
%TD*%
%TO.P,R6,1*%
%TO.N,Net-(J2-Pad1)*%
X151571956Y-94613478D03*
%TO.P,R6,2*%
%TO.N,Net-(R1-Pad2)*%
X151571956Y-110113478D03*
%TD*%
D11*
%TO.P,S0,1,A*%
%TO.N,Net-(R1-Pad2)*%
X144001956Y-85675978D03*
%TO.P,S0,2,B*%
%TO.N,Net-(J1-Pad1)*%
X146999456Y-85735978D03*
%TO.P,S0,3,C*%
%TO.N,Net-(J2-Pad1)*%
X150000000Y-85728478D03*
%TD*%
D10*
%TO.P,R4,1*%
%TO.N,Net-(J2-Pad1)*%
X161731956Y-94613478D03*
%TO.P,R4,2*%
%TO.N,Net-(R1-Pad2)*%
X161731956Y-110113478D03*
%TD*%
%TO.P,R8,1*%
%TO.N,Net-(J2-Pad1)*%
X141411956Y-94613478D03*
%TO.P,R8,2*%
%TO.N,Net-(R1-Pad2)*%
X141411956Y-110113478D03*
%TD*%
%TO.P,R3,1*%
%TO.N,Net-(J2-Pad1)*%
X166811956Y-94613478D03*
%TO.P,R3,2*%
%TO.N,Net-(R1-Pad2)*%
X166811956Y-110113478D03*
%TD*%
D12*
%TO.P,J2,1*%
%TO.N,Net-(J2-Pad1)*%
X171311956Y-86268478D03*
D13*
%TO.P,J2,2*%
%TO.N,Net-(J1-Pad2)*%
X171311956Y-79968478D03*
D14*
%TO.P,J2,3*%
%TO.N,unconnected-(J2-Pad3)*%
X166511956Y-83368478D03*
%TD*%
D10*
%TO.P,R1,2*%
%TO.N,Net-(R1-Pad2)*%
X176971956Y-110113478D03*
%TO.P,R1,1*%
%TO.N,Net-(J2-Pad1)*%
X176971956Y-94613478D03*
%TD*%
%TO.P,R5,1*%
%TO.N,Net-(J2-Pad1)*%
X156101156Y-94613478D03*
%TO.P,R5,2*%
%TO.N,Net-(R1-Pad2)*%
X156101156Y-110113478D03*
%TD*%
%TO.P,J1,1,+12V*%
%TO.N,Net-(J1-Pad1)*%
X155894956Y-118473478D03*
%TO.P,J1,2,GND*%
%TO.N,Net-(J1-Pad2)*%
X158434956Y-118473478D03*
%TD*%
D15*
%TO.N,Net-(J1-Pad1)*%
X146999456Y-85735978D02*
X146999456Y-77630978D01*
X133161956Y-76793478D02*
X132161956Y-77793478D01*
X132841956Y-118473478D02*
X155894956Y-118473478D01*
X146161956Y-76793478D02*
X133161956Y-76793478D01*
X146999456Y-77630978D02*
X146161956Y-76793478D01*
X132161956Y-77793478D02*
X132161956Y-117793478D01*
X132161956Y-117793478D02*
X132841956Y-118473478D01*
%TO.N,Net-(J1-Pad2)*%
X182161956Y-80793478D02*
X182161956Y-117793478D01*
X171311956Y-79968478D02*
X181336956Y-79968478D01*
X181336956Y-79968478D02*
X182161956Y-80793478D01*
X181481956Y-118473478D02*
X158434956Y-118473478D01*
X182161956Y-117793478D02*
X181481956Y-118473478D01*
%TO.N,Net-(J2-Pad1)*%
X150341956Y-94613478D02*
X141411956Y-94613478D01*
X150000000Y-85728478D02*
X150000000Y-94271522D01*
X176971956Y-94613478D02*
X174981956Y-94613478D01*
X150000000Y-94271522D02*
X150341956Y-94613478D01*
X171311956Y-88311956D02*
X174981956Y-91981956D01*
X174981956Y-91981956D02*
X174981956Y-94613478D01*
X174981956Y-94613478D02*
X150341956Y-94613478D01*
X171311956Y-86268478D02*
X171311956Y-88311956D01*
%TO.N,Net-(R1-Pad2)*%
X135161956Y-90793478D02*
X135161956Y-113793478D01*
X135161956Y-113793478D02*
X148161956Y-113793478D01*
X149161956Y-110433478D02*
X148841956Y-110113478D01*
X144001956Y-85675978D02*
X144001956Y-90000000D01*
X176971956Y-110113478D02*
X148841956Y-110113478D01*
X148841956Y-110113478D02*
X141411956Y-110113478D01*
X144001956Y-90000000D02*
X135955434Y-90000000D01*
X135955434Y-90000000D02*
X135161956Y-90793478D01*
X149161956Y-112793478D02*
X149161956Y-110433478D01*
X148161956Y-113793478D02*
X149161956Y-112793478D01*
%TD*%
M02*
